<svg width="418" height="477" viewBox="0 0 418 477" fill="none" xmlns="http://www.w3.org/2000/svg">
  <g filter="url(#filter0_d)">
    <path d="M208.128 396.042L208.128 75.5759" stroke="#7F78D2" stroke-width="9.67958" />
    <path
      d="M208.128 4.7672L225.767 76.3499L208.128 88.0948V73.9191L215.873 68.0496L208.128 27.5972V88.0948L190.489 76.3499L208.128 4.7672Z"
      fill="#7F78D2" />
    <path
      d="M301.164 301.596C302.363 297.825 306.559 291.591 313.753 296.832C322.746 303.383 317.35 315.89 308.957 320.059C300.564 324.228 281.98 320.059 283.778 296.832C285.577 273.605 307.159 265.863 323.345 273.01C339.532 280.156 351.522 306.361 343.129 329.588C334.736 352.815 317.95 365.321 293.37 361.748C268.791 358.175 253.803 336.735 246.01 301.596C238.216 266.458 245.005 200.086 232.221 152.111C224.435 122.888 214.436 107.245 208.241 94.937C202.091 107.245 192.164 122.888 184.433 152.111C171.741 200.086 178.481 266.458 170.743 301.596C163.005 336.735 148.125 358.175 123.721 361.748C99.3177 365.321 82.6519 352.815 74.3189 329.588C65.986 306.361 77.8902 280.156 93.9609 273.01C110.032 265.863 131.459 273.605 133.245 296.832C135.03 320.059 116.579 324.228 108.246 320.059C99.913 315.89 94.5561 303.383 103.484 296.832C110.627 291.591 114.793 297.825 115.984 301.596M208.578 399.844C201.553 392.203 187.503 364.503 187.503 314.836C187.503 252.751 237.362 186.369 260.493 156.759C283.623 127.15 310.352 110.912 318.576 108.047C305.554 120.623 277.969 158.001 271.801 206.904C264.091 268.034 270.773 290.957 293.389 302.897C316.006 314.836 367.142 296.036 353.192 261.719C343.541 237.978 312.319 241.086 309.359 261.719C306.24 283.46 339 285.11 335.026 265.947M208.692 399.844C215.717 392.203 229.767 364.503 229.767 314.836C229.767 252.751 179.908 186.369 156.777 156.759C133.647 127.15 106.918 110.912 98.6942 108.047C111.716 120.623 139.301 158.001 145.469 206.904C153.179 268.034 146.497 290.957 123.881 302.897C101.264 314.836 50.1281 296.036 64.078 261.719C73.7287 237.978 104.951 241.086 107.911 261.719C111.03 283.46 78.2701 285.11 82.2439 265.947"
      stroke="#E2C354" stroke-width="8.06632" stroke-linecap="round" stroke-linejoin="round" />
  </g>
  <defs>
    <filter id="filter0_d" x="-8.97355" y="0.280424" width="435.217" height="490.18" filterUnits="userSpaceOnUse"
      color-interpolation-filters="sRGB">
      <feFlood flood-opacity="0" result="BackgroundImageFix" />
      <feColorMatrix in="SourceAlpha" type="matrix" values="0 0 0 0 0 0 0 0 0 0 0 0 0 0 0 0 0 0 127 0" />
      <feOffset dy="4.48677" />
      <feGaussianBlur stdDeviation="4.48677" />
      <feColorMatrix type="matrix" values="0 0 0 0 0 0 0 0 0 0 0 0 0 0 0 0 0 0 0.25 0" />
      <feBlend mode="normal" in2="BackgroundImageFix" result="effect1_dropShadow" />
      <feBlend mode="normal" in="SourceGraphic" in2="effect1_dropShadow" result="shape" />
    </filter>
  </defs>
</svg>
